<?xml version="1.0" encoding="UTF-8"?> <svg xmlns="http://www.w3.org/2000/svg" xmlns:xlink="http://www.w3.org/1999/xlink" width="51px" height="41px" viewBox="0 0 51 41"><title>Group 23</title><defs><polygon id="path-1" points="0 40.534 50.042 40.534 50.042 0 0 0"></polygon></defs><g id="Design" stroke="none" stroke-width="1" fill="none" fill-rule="evenodd"><g id="Pricing" transform="translate(-1087.000000, -830.000000)"><g id="Managed-Services" transform="translate(388.000000, 303.000000)"><g id="Enterprise" transform="translate(0.000000, 131.000000)"><g id="Group-9" transform="translate(38.000000, 296.000000)"><g id="Group-4" transform="translate(661.000000, 100.000000)"><g id="Group-22" transform="translate(0.000000, 0.000000)"><path d="M25.021,37.5337 C25.021,38.9147 23.901,40.0337 22.521,40.0337 C21.14,40.0337 20.021,38.9147 20.021,37.5337 C20.021,36.1527 21.14,35.0337 22.521,35.0337 C23.901,35.0337 25.021,36.1527 25.021,37.5337" id="Fill-1" fill="#A7FFEB"></path><polygon id="Fill-3" fill="#A7FFEB" points="13.3003 13.1939 48.7813 13.1939 42.4683 33.8789 19.5993 33.8789"></polygon><polyline id="Stroke-5" stroke="#212121" stroke-linecap="round" stroke-linejoin="round" points="7.9605 9.6094 49.5425 9.6094 42.2785 33.4084 15.2075 33.4084 5.4025 1.2804 0.5005 1.2804"></polyline><path d="M25.021,36.7212 C25.021,38.5512 23.538,40.0342 21.708,40.0342 C19.878,40.0342 18.395,38.5512 18.395,36.7212 C18.395,34.8912 19.878,33.4082 21.708,33.4082 C23.538,33.4082 25.021,34.8912 25.021,36.7212 Z" id="Stroke-7" stroke="#212121" stroke-linecap="round" stroke-linejoin="round"></path><line x1="9.7647" y1="15.5733" x2="47.7217" y2="15.5733" id="Stroke-9" stroke="#212121" stroke-linecap="round" stroke-linejoin="round"></line><line x1="11.5791" y1="21.5181" x2="45.9071" y2="21.5181" id="Stroke-11" stroke="#212121" stroke-linecap="round" stroke-linejoin="round"></line><line x1="13.3936" y1="27.4634" x2="44.0926" y2="27.4634" id="Stroke-13" stroke="#212121" stroke-linecap="round" stroke-linejoin="round"></line><path d="M38.5762,37.5337 C38.5762,38.9147 37.4572,40.0337 36.0762,40.0337 C34.6952,40.0337 33.5762,38.9147 33.5762,37.5337 C33.5762,36.1527 34.6952,35.0337 36.0762,35.0337 C37.4572,35.0337 38.5762,36.1527 38.5762,37.5337" id="Fill-15" fill="#A7FFEB"></path><path d="M38.5762,36.7212 C38.5762,38.5512 37.0932,40.0342 35.2632,40.0342 C33.4332,40.0342 31.9502,38.5512 31.9502,36.7212 C31.9502,34.8912 33.4332,33.4082 35.2632,33.4082 C37.0932,33.4082 38.5762,34.8912 38.5762,36.7212 Z" id="Stroke-17" stroke="#212121" stroke-linecap="round" stroke-linejoin="round"></path><mask id="mask-2" fill="white"><use xlink:href="#path-1"></use></mask><g id="Clip-20"></g><polygon id="Stroke-19" stroke="#212121" stroke-linecap="round" stroke-linejoin="round" mask="url(#mask-2)" points="26.408 9.609 36.076 9.609 36.076 0.5 26.408 0.5"></polygon><polygon id="Stroke-21" stroke="#212121" stroke-linecap="round" stroke-linejoin="round" mask="url(#mask-2)" points="16.74 9.609 26.408 9.609 26.408 3.583 16.74 3.583"></polygon></g></g></g></g></g></g></g></svg> 